/* XPM */
static char *result[] = {
/* columns rows colors chars-per-pixel */
"32 32 97 2 ",
"   c #1B1931",
".  c #2C1E34",
"X  c #321F35",
"o  c #2D2133",
"O  c #342236",
"+  c #3C2237",
"@  c #342935",
"#  c #3F2238",
"$  c #432737",
"%  c #442A36",
"&  c #4D2C37",
"*  c #422438",
"=  c #472A3A",
"-  c #4B2C38",
";  c #522D38",
":  c #4A323A",
">  c #523136",
",  c #5B3537",
"<  c #563239",
"1  c #5A3339",
"2  c #563C3D",
"3  c #5B393C",
"4  c #633639",
"5  c #643B3A",
"6  c #6A3A3A",
"7  c #713E3A",
"8  c #5B413E",
"9  c #61413F",
"0  c #744039",
"q  c #7B443A",
"w  c #543D41",
"e  c #5D4142",
"r  c #51424B",
"t  c #5F4F4F",
"y  c #644442",
"u  c #6B4642",
"i  c #664942",
"p  c #744C43",
"a  c #7A4D42",
"s  c #755146",
"d  c #7D5546",
"f  c #76524A",
"g  c #7C554B",
"h  c #7F584D",
"j  c #765C52",
"k  c #7E6765",
"l  c #7D6B66",
"z  c #80463A",
"x  c #815645",
"c  c #825947",
"v  c #865A4B",
"b  c #8D5D4B",
"n  c #905D46",
"m  c #985F46",
"M  c #875D50",
"N  c #8F604A",
"B  c #95644B",
"V  c #9A654B",
"C  c #9B694E",
"Z  c #8C6152",
"A  c #866A5E",
"S  c #8A6C5D",
"D  c #946452",
"F  c #9C6651",
"G  c #9C6A55",
"H  c #A1674C",
"J  c #A46C4D",
"K  c #AA6E4D",
"L  c #AF714E",
"P  c #A26C55",
"I  c #AB7351",
"U  c #A6725A",
"Y  c #AC755B",
"T  c #AF785C",
"R  c #B27651",
"E  c #B57952",
"W  c #BC7D53",
"Q  c #B0795D",
"!  c #866B65",
"~  c #886F67",
"^  c #867067",
"/  c #897067",
"(  c #8C7469",
")  c #8C786C",
"_  c #90796B",
"`  c #BF8054",
"'  c #9D8979",
"]  c #A58E7C",
"[  c #A6917D",
"{  c #C08054",
"}  c #AE9682",
"|  c #B9A38B",
" . c #C1A88F",
".. c #C7AC90",
"X. c #CEB596",
"o. c #D6B396",
"O. c #D9BE9C",
/* pixels */
"O.O.O.O.O.O.O.O.O.O.O.O.X.' j d d j ' X.O.O.O.O.O.O.O.O.O.O.O.O.",
"O.O.O.O.O.O.O.O.O.O.X.[ ! g c ` ` d h A ' X.O.O.O.O.O.O.O.O.O.O.",
"O.O.O.O.O.O.O.O.o.[ ! Z U G h ` ` d G G y S [ X.O.O.O.O.O.O.O.O.",
"O.O.O.O.O.O.X.[ A Z P Y T G c ` ` h G U J E C S } X.O.O.O.O.O.O.",
"O.O.O.O.X.[ ! Z P P V Y U g d ` ` d h G N ` ` E D S [ X.O.O.O.O.",
"O.O.X.[ A Z U T Y Y U M g g d ` ` d N g d ` ` ` ` E C S [ X.O.O.",
"O.} A B D T T T U Z b u G G c ` ` q Z G D c C W ` ` ` E C A } O.",
"O.) C J b T U N h B W D G G x ` ` N C Y T U F V J ` ` ` ` P ) O.",
"O._ C V s Z g B E ` ` b F h d ` { d h U T T Y Y G d B R ` I ) O.",
"O.) J N i B E W ` ` W d s c d ` ` x x g B Y T Y T f N c C C _ O.",
"O.( x H I { ` ` E V H K R C x ` ` c I E P n D Y T h I E C q ( O.",
"O.) J W K K R V c V E ` R V c ` { c I { { E V v N h I { ` N ( O.",
"O._ I { E B s s E ` W { { L c ` { x L ` W { J P Z i N ` ` I ' X.",
"O._ J L b Z D v { ` { W ` L x W { d C ` W { V P Q U D g B C ) O.",
"O.( n P Y T U V ` E ` { E C 2 a s > B ` { { b P T T T s f s ^ O.",
"O.( G T Y Y I m J R W J a : O . . o : q J W b G T Y U s G B ) O.",
"O.( G Y Y Y P n E J q & + X * X O * X + - a u G Q Y G f G G ( O.",
"o.( G Y Q Q F p s % o X X . X . . X . X X . o u F Y T g G G ( o.",
"o.~ v H Y F p X + # # # # # % , 1 % # # # # # # - p F f G P ( o.",
"o.~ D F p $ X X # * # # * ; 6 7 7 6 ; * # # # # + X $ : b G / o.",
"o.! 9 & # . X X O O + O # % $ $ % % * O . X X X X X X X - 9 ~ o.",
"o.} w X * + * * $ = 3 3 3 6 4 6 7 6 < y w e w e - # X # # r } o.",
"o.o.! w * X = < e y w w y y 1 4 6 1 9 2 @ @ @ w y * - ; X k o.o.",
"o.o.k X ; % < 6 y @     @ 9 > 7 7 1 w O       @ w ; 4 7 ; k o.o.",
"o.o.! 4 q ; ; 4 y O     @ y 1 6 6 & 9 @       @ y = , z 7 ! o.o.",
"o.o.! 7 z ; 1 6 u u e 8 u 9 7 7 q , 9 @       @ 9 ; , z 0 ! o.o.",
"o.o.! 7 z ; ; 6 4 w 4 y 9 4 5 6 6 & 8 @       @ 9 ; 1 z 0 ! o.o.",
"o.o.! 6 z ; 1 7 0 4 7 0 q q q 7 7 < i @       @ 9 & 1 z 0 ! o.o.",
"o.o.! 0 z > & 6 6 6 6 6 6 6 6 6 6 ; w @       @ y % , z 7 ! o.o.",
"o.o.) 5 0 3 w u y y y y y u y y u w 3 t l l l t 2 : 3 0 5 ( o.o.",
"o.O...) ! }  .|  . . . .| ....| ..| ) } O.O.O.} ) | ] / _  .O.o.",
"o.O.O.O.O.O.O.O.O.O.O.O.O.O.O.O.O.O.O.O.O.O.O.O.O.O.O.O.O.O.O.O."
};
