/* XPM */
static char *_7080a7506554521d078b3505370bc0070DLVddDxoxNs8jP[] = {
/* columns rows colors chars-per-pixel */
"32 32 6 1 ",
"  c #D8BD9B",
". c #D7B999",
"X c #D5B295",
"o c #D5B195",
"O c #D5B296",
"+ c white",
/* pixels */
"                                ",
"               ..               ",
"              .XX.              ",
"             .XooX.             ",
"            .XooooX.            ",
"           .XooooooX.           ",
"          .XooooooooX.          ",
"         .XooooooooooX.         ",
"        .XooooooooooooX.        ",
"       .XooooooooooooooX.       ",
"      .XooooooooooooooooX.      ",
"     .XooooooooooooooooooX.     ",
"    .XooooooooooooooooooooX.    ",
"   .XooooooooooooooooooooooX.   ",
"  .XooooooooooooooooooooooooX.  ",
" .XooooooooooooXXooooooooooooX. ",
".OooooooooooooX..XooooooooooooO.",
"oooooooooooooX.  .Xooooooooooooo",
"ooooooooooooX.    .Xoooooooooooo",
"oooooooooooX.      .Xooooooooooo",
"ooooooooooX.        .Xoooooooooo",
"oooooooooX.          .Xooooooooo",
"ooooooooX.            .Xoooooooo",
"oooooooX.              .Xooooooo",
"ooooooX.                .Xoooooo",
"oooooX.                  .Xooooo",
"ooooX.                    .Xoooo",
"oooX.                      .Xooo",
"ooX.                        .Xoo",
"oX.                          .Xo",
"O.                            .O",
".                              ."
};
