/* XPM */
static char *result[] = {
/* columns rows colors chars-per-pixel */
"32 32 39 1 ",
"  c #211E30",
". c #201F30",
"X c #211F30",
"o c #211E31",
"O c #201F31",
"+ c #211F31",
"@ c #62667A",
"# c #63667A",
"$ c #62677A",
"% c #63677A",
"& c #62677B",
"* c #848D98",
"= c #858D98",
"- c #848C99",
"; c #858C99",
": c #848D99",
"> c #858D99",
", c #D6B296",
"< c #D6B396",
"1 c #D7B396",
"2 c #D6B297",
"3 c #D6B397",
"4 c #D7B397",
"5 c #D8BA9A",
"6 c #D9BA9A",
"7 c #D8BB9A",
"8 c #D8BA9B",
"9 c #D8BE9C",
"0 c #D9BE9C",
"q c #D8BF9C",
"w c #D9BF9C",
"e c #D8BE9D",
"r c #D9BE9D",
"t c #D9BF9D",
"y c #AFBBC2",
"u c #AFBAC3",
"i c #AEBBC3",
"p c #AFBBC3",
"a c #D8E1E4",
/* pixels */
"0000000rw00ww000000000r090000900",
"000000q00r000t06590000w0000w0000",
"0r00000000090q5<<5900w0000090000",
"99000000w00r06<<X<500090t0000000",
"009000w0t00w51<+a.<70000000e000r",
"00r000000006<<Xap>X<590900000000",
"w0090000005<<Xy>:>: <5r000000w00",
"0000000XXXX<1XXX+XX.<1XXXX00w0r0",
"00w0000Xap>XXpppi;>> X>paXr0r0r0",
"00r0000Xp>Xpp;;:>>>>>$ >pX000000",
"0000905 =Xp>>:>>>>>:>>%X>+w00000",
"0000082<Xp>pp>>:>>>>>>$&X350rr00",
"00095<<4+>>pp>>;=>>>>>>$.1<50r0w",
"w905<,XXu>>>*>>=>>==>=>$%.X<5000",
"005<3Xp+>>p>=>>>>>>>>;>$@Xp.<500",
"06<,Xa>.>>;;=>>>>;>>>>=$$X>a.350",
"543Xap;X;>;>>>;>>>>;>$>$%X>iaX35",
"<<,<X->X:>:>>>>>:>>>:=>$&X>>O<<,",
"<<<1<X>X::>>>>>>>:>>>:$%$X>X<1<<",
"<2<<,<XX$>>>>>*>>>>$$>&$$XX<<<,<",
"<<<<1<<<X>>>>>:>=$>$$>$%X<3<<<<<",
"<<<<<<<<X$$>;;;>>>>*>%$$X<<<<<1,",
"<,<<3<<X=X$$#>>=>>$$%$% >.3<,<,<",
"<<<<<<1Xp>X$$$&$$$$$$$X>p+<<<<<<",
"<1<<<<<Xau>XX@$@$@#$X+>paX<1<<<<",
"<<<<,<5X.X 90XX XXo 00XXXX<3<<<1",
"1<<<<50000000Xp>>=>X0000005<<<<2",
"<<<<800ww00000Xau=X000009005,<<<",
"<,3500900rr0000 aXw0000000005<<1",
"<<5000000009000w+r0000r9000008,<",
"359000000w00000900000909r00r0083",
"50w0e00000000r0000900w0w00000005"
};
