/* XPM */
static char *result[] = {
/* columns rows colors chars-per-pixel */
"32 32 53 1 ",
"  c #201E30",
". c #211E30",
"X c #201F30",
"o c #211F30",
"O c #211E31",
"+ c #201F31",
"@ c #211F31",
"# c #076028",
"$ c #076029",
"% c #076129",
"& c #9C1B4C",
"* c #9D1A4D",
"= c #9C1B4D",
"- c #CC3048",
"; c #CD3048",
": c #CC3148",
"> c #CC3049",
", c #E44A4A",
"< c #28860E",
"1 c #29860E",
"2 c #28860F",
"3 c #29860F",
"4 c #28870F",
"5 c #29870F",
"6 c #72A11C",
"7 c #73A11C",
"8 c #72A01D",
"9 c #73A01D",
"0 c #72A11D",
"q c #73A11D",
"w c #A4CC42",
"e c #A5CC42",
"r c #A4CD42",
"t c #A4CC43",
"y c #D6B296",
"u c #D7B296",
"i c #D6B396",
"p c #D7B396",
"a c #D6B297",
"s c #D6B397",
"d c #D7B397",
"f c #D8BA9A",
"g c #D9BA9A",
"h c #D8BB9A",
"j c #D8BA9B",
"k c #D9BA9B",
"l c #D8BE9C",
"z c #D9BE9C",
"x c #D9BF9C",
"c c #D8BE9D",
"v c #D9BE9D",
"b c #D9BF9D",
"n c white",
/* pixels */
"zzzzzzzzvzzzzzlzzzzzzzzzzzzzxzzz",
"zxzlzlzzzzzxzzzhjzzxvzzxzbzxzzzz",
"zzxzzzzllzxzvzfiifzzzzzzzzzzlzzz",
"zzzzxzzxvzzvzfisiifvzzzzzlzzzlzz",
"zzzxzo@ozzlooooo.iif.ooozzzzzzzz",
"zzzzo,,,ozo0080q0oiX0000.vzlzvzz",
"zzzlo->-=.o@ooXXo.ooo@o..zzzvzzz",
"zzzzloo=o=-,,,>,----,-,,,ozxzczz",
"zzzzo-*oooo===-=--::=-==oozzzzvl",
"lzzzo,-o=&--:--:---;----- zzzzzz",
"zzzzX,-oooo@oo@o@ooooooooozzxzzl",
"zvzzo,oo3<22$nnnn#3#nnnn$2Xlzzvl",
"zzlzj @200002$$$$202$$$%20ofzvzl",
"zzzgiio80q0q0000q000000000oifvzz",
"zzfiiyo89068$#$$$#%$$$$$00oisjzl",
"zfiiiiX0000200808000880020osiifz",
"fsiiiio80000608042322q0000Xsiisf",
"iiiiiipo20008060066606002oiiiiis",
"iiisisiiX220000000700035.aipyisi",
"iiiiiiipio+0q000008000o.iiiiyiyi",
"iiipiiiiiio00qwwwwwww8Odiiiiiiii",
"iyiiiiiiso000wwwrwwwwe0oiiiiiiip",
"iiiiiisio0080twwwwwtww0ooiiiiiii",
"iiiiaiso20q00ewwwwwwww0 2oiiiiyi",
"iipiiiiX202.0wwwwwwwww0o2+iiiiiy",
"issiiifX22o868wwwwwww608o.isiiip",
"iiiiifvxoo3000Xoooo.o000ozfiiiii",
"iiiifzzzxo2000ozzzxo1802ozzfiyii",
"iiigzxzzzo200ozzzzxo222@zzzzjiii",
"iifzzczzzo202oxzzzzzXoozvzczzfui",
"shlzzzzzzo42oxzzzzlzzlzzzzzzzvfs",
"kvzzzzzzzzoXzzzvzzzzvzzvzzzzzzzf"
};
