/* XPM */
static char *result[] = {
/* columns rows colors chars-per-pixel */
"32 32 82 1 ",
"  c #333344",
". c #36364A",
"X c #3A3B4D",
"o c #3E3F50",
"O c #3F4051",
"+ c #434456",
"@ c #464957",
"# c #464959",
"$ c #4B4D5D",
"% c #4D505F",
"& c #4B4E61",
"* c #4F5162",
"= c #525464",
"- c #525468",
"; c #565A68",
": c #5B5D6A",
"> c #5B5F72",
", c #5F626F",
"< c #5E6174",
"1 c #616472",
"2 c #666975",
"3 c #686B77",
"4 c #636779",
"5 c #65697B",
"6 c #696D7C",
"7 c #6D717D",
"8 c #74737E",
"9 c #877E7B",
"0 c #887D7A",
"q c #A68B77",
"w c #A98D7A",
"e c #AB957E",
"r c #696F81",
"t c #6D7484",
"y c #737683",
"u c #737A86",
"i c #7A7C86",
"p c #757C8B",
"a c #7B7C8B",
"s c #7A818E",
"d c #7E8592",
"f c #86848E",
"g c #808794",
"h c #828A96",
"j c #8B8A97",
"k c #868E9A",
"l c #8B8B98",
"z c #87909B",
"x c #89919C",
"c c #AC9680",
"v c #AE9882",
"b c #8D96A1",
"n c #9097A3",
"m c #949AA7",
"M c #959FAA",
"N c #9EA5AD",
"B c #9BA6B0",
"V c #9EA9B3",
"C c #A3ACB4",
"Z c #A6B2BA",
"A c #ABB6BE",
"S c #B5B5BB",
"D c #C5A58B",
"F c #C8AF90",
"G c #D6B396",
"H c #D9BE9C",
"J c #ADB9C1",
"K c #B2BDC5",
"L c #B5C0C7",
"P c #BBC3C7",
"I c #B7C2C9",
"U c #BBC5CB",
"Y c #BDC8CE",
"T c #C6CACE",
"R c #CAC9CF",
"E c #C1CBD1",
"W c #CBCBD0",
"Q c #C7D1D6",
"! c #CED2D7",
"~ c #E0E1E4",
"^ c #F5FBFC",
"/ c #FFFFFF",
/* pixels */
"HHHHHHHHHHHHHHHHHHHHHHHHHHHHHHHH",
"HHHHHHHHHHHHHHHHHHHHHHHHHHHHHHHH",
"HHHHHHHHHHHHHHHGGHHHHHHHHHHHHHHH",
"HHHHFecveeeeeewwwqeeeeeeveeFHHHH",
"HHHF9f8+18y88361,11117y7+8sqFHHH",
"HHHef/!6MLYYUKLAJSABJIYJ5Q^feHHH",
"HHHe8TN..XoOOX+Xooo.XOoX.NT8eHHH",
"HHHv.* 4tttttttttt5ttttt4 %OvHHH",
"HHHe8AOtzdyzxxzzzzgkkudxtXA7eHHH",
"HHHe8YOth@7uuushhauuu6#htOYyeHHH",
"HHHe6LXth++88:+as+:88++ktoU8eHHH",
"HHHe7LO5dtj//W>hh<W//ltztoUyeHHH",
"HHHe2KXtksl//S+@++S//jaktXK1eHHH",
"HHHe1AOtzdaWS1EAZZ:SRadkt+Z:eHHH",
"HHHq1JOtkku5*&KKKK$=6uhzt+Z;wHHH",
"HHGq,AOtkkhx4$EUJJ$<xzhktXK1wGHH",
"HGGw=ZOtbdsz<*JJZx+<kkaztoJ1wGGH",
"GGGw1JOtzd65-*ZJJB#-66hktoJ1wGGG",
"GGGw<AOtdpZmsObbbb@smCuhtOJ1wGGG",
"GGGe1JOt=Vnr<*.OX.&45nV=toJ1wGGG",
"GGGw1JOt%ds7;=OO++*;tpd&tXC1wGGG",
"GGGq<VXt5OO#&&*&&&#&#+O5tXZ1wGGG",
"GGGw<AOtk<<pd<sspp<dp>4htOJ1wGGG",
"GGGw:VXtzzzzd5*=--rkkdhztoV:wGGG",
"GGGwo1.tdsddddssppdhhsdht.<owGGG",
"GGGq8~S.$@%$@$#O@@@@@%%%.S~twGGG",
"GGGqf^T=LQQUZAJLAJALUYQU=P^pqGGG",
"GGGD0i, ,,,2=,,,111111<: 1iqDGGG",
"GGGHFwevveeeeveveeeecccevccFHGGG",
"GGHHHHHHHHHHHHHHHHHHHHHHHHHHHHGG",
"GHHHHHHHHHHHHHHHHHHHHHHHHHHHHHGG",
"GHHHHHHHHHHHHHHHHHHHHHHHHHHHHHHH"
};
